<svg width="170" height="170" viewBox="0 0 170 170" fill="none" xmlns="http://www.w3.org/2000/svg">
<circle cx="85" cy="85" r="85" fill="url(#paint0_radial_1085_126)"/>
<path d="M114.614 73.8482C114.121 73.8482 113.648 73.6524 113.299 73.3038C112.951 72.9553 112.755 72.4825 112.755 71.9896V42.252C112.753 40.7737 112.165 39.3564 111.12 38.3111C110.075 37.2658 108.657 36.6778 107.179 36.6762H62.5728C61.0945 36.6778 59.6772 37.2658 58.6319 38.3111C57.5866 39.3564 56.9986 40.7737 56.997 42.252V71.9896C56.997 72.4825 56.8012 72.9553 56.4526 73.3038C56.1041 73.6524 55.6313 73.8482 55.1384 73.8482C54.6455 73.8482 54.1727 73.6524 53.8242 73.3038C53.4756 72.9553 53.2798 72.4825 53.2798 71.9896V42.252C53.2827 39.7882 54.2627 37.4262 56.0048 35.684C57.747 33.9419 60.109 32.9619 62.5728 32.959H107.179C109.643 32.9619 112.005 33.9419 113.747 35.684C115.489 37.4262 116.469 39.7882 116.472 42.252V71.9896C116.472 72.4825 116.276 72.9553 115.928 73.3038C115.579 73.6524 115.107 73.8482 114.614 73.8482Z" fill="white"/>
<path d="M107.179 137.041H62.5728C60.109 137.038 57.747 136.058 56.0048 134.316C54.2627 132.573 53.2827 130.211 53.2798 127.748V98.01C53.2798 97.517 53.4756 97.0443 53.8242 96.6957C54.1727 96.3472 54.6455 96.1514 55.1384 96.1514C55.6313 96.1514 56.1041 96.3472 56.4526 96.6957C56.8012 97.0443 56.997 97.517 56.997 98.01V127.748C56.9986 129.226 57.5866 130.643 58.6319 131.688C59.6772 132.734 61.0945 133.322 62.5728 133.323H107.179C108.657 133.322 110.075 132.734 111.12 131.688C112.165 130.643 112.753 129.226 112.755 127.748V98.01C112.755 97.517 112.951 97.0443 113.299 96.6957C113.648 96.3472 114.121 96.1514 114.614 96.1514C115.107 96.1514 115.579 96.3472 115.928 96.6957C116.276 97.0443 116.472 97.517 116.472 98.01V127.748C116.469 130.211 115.489 132.573 113.747 134.316C112.005 136.058 109.643 137.038 107.179 137.041Z" fill="white"/>
<path d="M88.5933 44.1108H81.1589C80.666 44.1108 80.1932 43.9149 79.8447 43.5664C79.4961 43.2178 79.3003 42.7451 79.3003 42.2522C79.3003 41.7592 79.4961 41.2865 79.8447 40.9379C80.1932 40.5894 80.666 40.3936 81.1589 40.3936H88.5933C89.0862 40.3936 89.559 40.5894 89.9075 40.9379C90.2561 41.2865 90.4519 41.7592 90.4519 42.2522C90.4519 42.7451 90.2561 43.2178 89.9075 43.5664C89.559 43.9149 89.0862 44.1108 88.5933 44.1108Z" fill="white"/>
<path d="M73.7243 44.1108C74.7508 44.1108 75.5829 43.2786 75.5829 42.2522C75.5829 41.2257 74.7508 40.3936 73.7243 40.3936C72.6978 40.3936 71.8657 41.2257 71.8657 42.2522C71.8657 43.2786 72.6978 44.1108 73.7243 44.1108Z" fill="white"/>
<path d="M96.0275 44.1108C97.054 44.1108 97.8861 43.2786 97.8861 42.2522C97.8861 41.2257 97.054 40.3936 96.0275 40.3936C95.0011 40.3936 94.1689 41.2257 94.1689 42.2522C94.1689 43.2786 95.0011 44.1108 96.0275 44.1108Z" fill="white"/>
<path d="M107.179 73.8485C106.686 73.8485 106.214 73.6527 105.865 73.3042C105.517 72.9556 105.321 72.4829 105.321 71.9899V51.5453H64.4316V71.9899C64.4316 72.4829 64.2357 72.9556 63.8872 73.3042C63.5386 73.6527 63.0659 73.8485 62.573 73.8485C62.08 73.8485 61.6073 73.6527 61.2587 73.3042C60.9102 72.9556 60.7144 72.4829 60.7144 71.9899V49.6867C60.7144 49.1938 60.9102 48.7211 61.2587 48.3725C61.6073 48.0239 62.08 47.8281 62.573 47.8281H107.179C107.672 47.8281 108.145 48.0239 108.494 48.3725C108.842 48.7211 109.038 49.1938 109.038 49.6867V71.9899C109.038 72.4829 108.842 72.9556 108.494 73.3042C108.145 73.6527 107.672 73.8485 107.179 73.8485Z" fill="white"/>
<path d="M107.179 122.172H62.573C62.08 122.172 61.6073 121.976 61.2587 121.627C60.9102 121.279 60.7144 120.806 60.7144 120.313V98.01C60.7144 97.517 60.9102 97.0443 61.2587 96.6957C61.6073 96.3472 62.08 96.1514 62.573 96.1514C63.0659 96.1514 63.5386 96.3472 63.8872 96.6957C64.2357 97.0443 64.4316 97.517 64.4316 98.01V118.455H105.321V98.01C105.321 97.517 105.517 97.0443 105.865 96.6957C106.214 96.3472 106.686 96.1514 107.179 96.1514C107.672 96.1514 108.145 96.3472 108.494 96.6957C108.842 97.0443 109.038 97.517 109.038 98.01V120.313C109.038 120.806 108.842 121.279 108.494 121.627C108.145 121.976 107.672 122.172 107.179 122.172Z" fill="white"/>
<path d="M92.3104 129.606H77.4416C76.9487 129.606 76.4759 129.41 76.1274 129.062C75.7788 128.713 75.583 128.24 75.583 127.747C75.583 127.254 75.7788 126.782 76.1274 126.433C76.4759 126.084 76.9487 125.889 77.4416 125.889H92.3104C92.8033 125.889 93.2761 126.084 93.6246 126.433C93.9732 126.782 94.169 127.254 94.169 127.747C94.169 128.24 93.9732 128.713 93.6246 129.062C93.2761 129.41 92.8033 129.606 92.3104 129.606Z" fill="white"/>
<path d="M133.2 99.8685H36.5524C36.0595 99.8685 35.5868 99.6727 35.2382 99.3241C34.8897 98.9755 34.6938 98.5028 34.6938 98.0099V71.9895C34.6938 71.4965 34.8897 71.0238 35.2382 70.6752C35.5868 70.3267 36.0595 70.1309 36.5524 70.1309H133.2C133.693 70.1309 134.165 70.3267 134.514 70.6752C134.862 71.0238 135.058 71.4965 135.058 71.9895V98.0099C135.058 98.5028 134.862 98.9755 134.514 99.3241C134.165 99.6727 133.693 99.8685 133.2 99.8685ZM38.411 96.1513H131.341V73.8481H38.411V96.1513Z" fill="white"/>
<path d="M84.8762 92.4342C84.3832 92.4342 83.9105 92.2384 83.5619 91.8899C83.2134 91.5413 83.0176 91.0686 83.0176 90.5756V79.424C83.0176 78.9311 83.2134 78.4584 83.5619 78.1098C83.9105 77.7612 84.3832 77.5654 84.8762 77.5654C85.3691 77.5654 85.8419 77.7612 86.1904 78.1098C86.539 78.4584 86.7348 78.9311 86.7348 79.424V90.5756C86.7348 91.0686 86.539 91.5413 86.1904 91.8899C85.8419 92.2384 85.3691 92.4342 84.8762 92.4342Z" fill="white"/>
<path d="M80.0488 89.6468C79.6394 89.6473 79.2413 89.5126 78.9163 89.2636C78.5914 89.0147 78.3577 88.6654 78.2515 88.27C78.1454 87.8746 78.1728 87.4552 78.3294 87.077C78.4861 86.6988 78.7632 86.3829 79.1179 86.1783L88.7748 80.6025C88.9862 80.4804 89.2196 80.4012 89.4616 80.3694C89.7036 80.3376 89.9496 80.3537 90.1853 80.4169C90.4211 80.4801 90.6422 80.5891 90.8358 80.7377C91.0295 80.8864 91.192 81.0717 91.314 81.2831C91.436 81.4945 91.5152 81.7279 91.5471 81.9699C91.5789 82.212 91.5628 82.4579 91.4996 82.6937C91.4364 82.9295 91.3273 83.1505 91.1787 83.3441C91.0301 83.5378 90.8448 83.7003 90.6334 83.8223L80.9765 89.3981C80.6945 89.5611 80.3745 89.6469 80.0488 89.6468Z" fill="white"/>
<path d="M89.7024 89.6468C89.3768 89.647 89.0568 89.5613 88.775 89.3981L79.1181 83.8223C78.9066 83.7003 78.7213 83.5378 78.5727 83.3441C78.4241 83.1505 78.3151 82.9295 78.2519 82.6937C78.1887 82.4579 78.1725 82.212 78.2044 81.9699C78.2362 81.7279 78.3154 81.4945 78.4374 81.2831C78.6839 80.8561 79.0899 80.5445 79.5661 80.4169C79.8019 80.3537 80.0478 80.3376 80.2898 80.3694C80.5319 80.4012 80.7652 80.4804 80.9767 80.6025L90.6336 86.1783C90.9882 86.3829 91.2654 86.6988 91.422 87.0771C91.5787 87.4553 91.606 87.8747 91.4999 88.2701C91.3937 88.6655 91.16 89.0148 90.835 89.2637C90.5099 89.5127 90.1118 89.6473 89.7024 89.6468Z" fill="white"/>
<path d="M103.462 92.4342C102.969 92.4342 102.496 92.2384 102.148 91.8899C101.799 91.5413 101.604 91.0686 101.604 90.5756V79.424C101.604 78.9311 101.799 78.4584 102.148 78.1098C102.496 77.7612 102.969 77.5654 103.462 77.5654C103.955 77.5654 104.428 77.7612 104.776 78.1098C105.125 78.4584 105.321 78.9311 105.321 79.424V90.5756C105.321 91.0686 105.125 91.5413 104.776 91.8899C104.428 92.2384 103.955 92.4342 103.462 92.4342Z" fill="white"/>
<path d="M98.6359 89.6468C98.2265 89.6473 97.8284 89.5127 97.5034 89.2637C97.1783 89.0148 96.9446 88.6655 96.8385 88.2701C96.7323 87.8747 96.7597 87.4553 96.9163 87.0771C97.073 86.6988 97.3501 86.3829 97.7048 86.1783L107.361 80.6025C107.572 80.4804 107.806 80.4012 108.048 80.3694C108.29 80.3376 108.536 80.3537 108.772 80.4169C109.007 80.4801 109.228 80.5891 109.422 80.7377C109.616 80.8864 109.778 81.0717 109.9 81.2831C110.022 81.4945 110.101 81.7279 110.133 81.9699C110.165 82.212 110.149 82.4579 110.086 82.6937C110.023 82.9295 109.914 83.1505 109.765 83.3441C109.616 83.5378 109.431 83.7003 109.22 83.8223L99.5634 89.3981C99.2815 89.5613 98.9616 89.647 98.6359 89.6468Z" fill="white"/>
<path d="M108.288 89.6468C107.963 89.647 107.643 89.5613 107.361 89.3981L97.7047 83.8223C97.4933 83.7003 97.308 83.5378 97.1594 83.3441C97.0108 83.1505 96.9017 82.9295 96.8385 82.6937C96.7753 82.4579 96.7592 82.212 96.791 81.9699C96.8229 81.7279 96.9021 81.4945 97.0241 81.2831C97.2706 80.8561 97.6766 80.5445 98.1528 80.4169C98.3885 80.3537 98.6345 80.3376 98.8765 80.3694C99.1185 80.4012 99.3519 80.4804 99.5633 80.6025L109.219 86.1783C109.574 86.3829 109.851 86.6988 110.008 87.0771C110.165 87.4553 110.192 87.8747 110.086 88.2701C109.98 88.6655 109.746 89.0148 109.421 89.2637C109.096 89.5127 108.698 89.6473 108.288 89.6468Z" fill="white"/>
<path d="M122.048 92.4342C121.555 92.4342 121.082 92.2384 120.734 91.8899C120.385 91.5413 120.189 91.0686 120.189 90.5756V79.424C120.189 78.9311 120.385 78.4584 120.734 78.1098C121.082 77.7612 121.555 77.5654 122.048 77.5654C122.541 77.5654 123.014 77.7612 123.362 78.1098C123.711 78.4584 123.907 78.9311 123.907 79.424V90.5756C123.907 91.0686 123.711 91.5413 123.362 91.8899C123.014 92.2384 122.541 92.4342 122.048 92.4342Z" fill="white"/>
<path d="M117.222 89.6468C116.812 89.6473 116.414 89.5127 116.089 89.2637C115.764 89.0148 115.531 88.6655 115.424 88.2701C115.318 87.8747 115.346 87.4553 115.502 87.0771C115.659 86.6988 115.936 86.3829 116.291 86.1783L125.947 80.6025C126.158 80.4804 126.392 80.4012 126.634 80.3694C126.876 80.3376 127.122 80.3537 127.357 80.4169C127.593 80.4801 127.814 80.5891 128.008 80.7377C128.202 80.8864 128.364 81.0717 128.486 81.2831C128.608 81.4945 128.687 81.7279 128.719 81.9699C128.751 82.212 128.735 82.4579 128.672 82.6937C128.608 82.9295 128.499 83.1505 128.351 83.3441C128.202 83.5378 128.017 83.7003 127.805 83.8223L118.149 89.3981C117.867 89.5613 117.548 89.647 117.222 89.6468Z" fill="white"/>
<path d="M126.874 89.6468C126.549 89.647 126.229 89.5613 125.947 89.3981L116.291 83.8223C116.079 83.7003 115.894 83.5378 115.745 83.3441C115.597 83.1505 115.488 82.9295 115.424 82.6937C115.361 82.4579 115.345 82.212 115.377 81.9699C115.409 81.7279 115.488 81.4945 115.61 81.2831C115.857 80.8561 116.262 80.5445 116.739 80.4169C116.974 80.3537 117.22 80.3376 117.462 80.3694C117.704 80.4012 117.938 80.4804 118.149 80.6025L127.805 86.1783C128.16 86.3829 128.437 86.6988 128.594 87.0771C128.751 87.4553 128.778 87.8747 128.672 88.2701C128.566 88.6655 128.332 89.0148 128.007 89.2637C127.682 89.5127 127.284 89.6473 126.874 89.6468Z" fill="white"/>
<path d="M66.29 92.4342C65.7971 92.4342 65.3243 92.2384 64.9758 91.8899C64.6272 91.5413 64.4314 91.0686 64.4314 90.5756V79.424C64.4314 78.9311 64.6272 78.4584 64.9758 78.1098C65.3243 77.7612 65.7971 77.5654 66.29 77.5654C66.7829 77.5654 67.2557 77.7612 67.6042 78.1098C67.9528 78.4584 68.1486 78.9311 68.1486 79.424V90.5756C68.1486 91.0686 67.9528 91.5413 67.6042 91.8899C67.2557 92.2384 66.7829 92.4342 66.29 92.4342Z" fill="white"/>
<path d="M61.4629 89.6468C61.0535 89.6473 60.6554 89.5126 60.3304 89.2636C60.0054 89.0147 59.7717 88.6654 59.6656 88.27C59.5595 87.8746 59.5869 87.4552 59.7435 87.077C59.9002 86.6988 60.1773 86.3829 60.5319 86.1783L70.1896 80.6025C70.401 80.4804 70.6344 80.4012 70.8764 80.3694C71.1184 80.3376 71.3644 80.3537 71.6001 80.4169C71.8359 80.4801 72.057 80.5891 72.2506 80.7377C72.4443 80.8864 72.6068 81.0717 72.7288 81.2831C72.8508 81.4945 72.93 81.7279 72.9619 81.9699C72.9937 82.212 72.9776 82.4579 72.9144 82.6937C72.8512 82.9295 72.7421 83.1505 72.5935 83.3441C72.4449 83.5378 72.2596 83.7003 72.0482 83.8223L62.3905 89.3981C62.1085 89.561 61.7886 89.6468 61.4629 89.6468Z" fill="white"/>
<path d="M71.1172 89.6468C70.7915 89.6468 70.4715 89.561 70.1895 89.3981L60.5319 83.8223C60.3205 83.7003 60.1351 83.5378 59.9865 83.3441C59.8379 83.1505 59.7289 82.9295 59.6657 82.6937C59.6025 82.4579 59.5863 82.212 59.6182 81.9699C59.65 81.7279 59.7292 81.4945 59.8513 81.2831C60.0977 80.8561 60.5037 80.5445 60.9799 80.4169C61.2157 80.3537 61.4616 80.3376 61.7037 80.3694C61.9457 80.4012 62.1791 80.4804 62.3905 80.6025L72.0481 86.1783C72.4028 86.3829 72.6799 86.6988 72.8366 87.077C72.9932 87.4552 73.0206 87.8746 72.9145 88.27C72.8083 88.6654 72.5746 89.0147 72.2496 89.2636C71.9247 89.5126 71.5266 89.6473 71.1172 89.6468Z" fill="white"/>
<path d="M47.7041 92.4342C47.2111 92.4342 46.7384 92.2384 46.3898 91.8899C46.0413 91.5413 45.8455 91.0686 45.8455 90.5756V79.424C45.8455 78.9311 46.0413 78.4584 46.3898 78.1098C46.7384 77.7612 47.2111 77.5654 47.7041 77.5654C48.197 77.5654 48.6697 77.7612 49.0183 78.1098C49.3668 78.4584 49.5627 78.9311 49.5627 79.424V90.5756C49.5627 91.0686 49.3668 91.5413 49.0183 91.8899C48.6697 92.2384 48.197 92.4342 47.7041 92.4342Z" fill="white"/>
<path d="M42.877 89.6468C42.4676 89.6473 42.0695 89.5126 41.7445 89.2636C41.4195 89.0147 41.1858 88.6654 41.0796 88.27C40.9735 87.8746 41.0009 87.4552 41.1576 87.077C41.3142 86.6988 41.5914 86.3829 41.946 86.1783L51.6036 80.6025C51.8151 80.4804 52.0484 80.4012 52.2905 80.3694C52.5325 80.3376 52.7784 80.3537 53.0142 80.4169C53.25 80.4801 53.471 80.5891 53.6647 80.7377C53.8583 80.8864 54.0208 81.0717 54.1429 81.2831C54.2649 81.4945 54.3441 81.7279 54.3759 81.9699C54.4078 82.212 54.3916 82.4579 54.3284 82.6937C54.2652 82.9295 54.1562 83.1505 54.0076 83.3441C53.859 83.5378 53.6737 83.7003 53.4622 83.8223L43.8046 89.3981C43.5226 89.561 43.2026 89.6468 42.877 89.6468Z" fill="white"/>
<path d="M52.5312 89.6468C52.2055 89.6468 51.8856 89.561 51.6036 89.3981L41.9459 83.8223C41.7345 83.7003 41.5492 83.5378 41.4006 83.3441C41.252 83.1505 41.1429 82.9295 41.0797 82.6937C41.0165 82.4579 41.0004 82.212 41.0322 81.9699C41.0641 81.7279 41.1433 81.4945 41.2653 81.2831C41.5118 80.8561 41.9178 80.5445 42.394 80.4169C42.6298 80.3537 42.8757 80.3376 43.1177 80.3694C43.3597 80.4012 43.5931 80.4804 43.8045 80.6025L53.4622 86.1783C53.8168 86.3829 54.094 86.6988 54.2506 87.077C54.4073 87.4552 54.4347 87.8746 54.3285 88.27C54.2224 88.6654 53.9887 89.0147 53.6637 89.2636C53.3387 89.5126 52.9406 89.6473 52.5312 89.6468Z" fill="white"/>
<defs>
<radialGradient id="paint0_radial_1085_126" cx="0" cy="0" r="1" gradientUnits="userSpaceOnUse" gradientTransform="translate(118.393 33.3929) rotate(115.789) scale(157.498)">
<stop stop-color="#60BC40"/>
<stop offset="1" stop-color="#249C63"/>
</radialGradient>
</defs>
</svg>
